M48
; DRILL file KiCad 10.0.4 date 2026-07-29T23:02:50
; FORMAT={-:-/ absolute / metric / decimal}
; #@! TF.CreationDate,2026-07-29T23:02:50-07:00
; #@! TF.GenerationSoftware,Kicad,Pcbnew,10.0.4
; #@! TF.FileFunction,NonPlated,1,2,NPTH
FMAT,2
METRIC
; #@! TA.AperFunction,NonPlated,NPTH,ComponentDrill
T1C1.750
; #@! TA.AperFunction,NonPlated,NPTH,ComponentDrill
T2C2.100
; #@! TA.AperFunction,NonPlated,NPTH,ComponentDrill
T3C3.048
; #@! TA.AperFunction,NonPlated,NPTH,ComponentDrill
T4C3.988
%
G90
G05
T1
X83.021Y-126.992
X83.021Y-150.803
X85.402Y-226.998
X87.783Y-169.852
X90.164Y-188.901
X93.181Y-126.992
X93.181Y-150.803
X94.926Y-207.949
X95.562Y-226.998
X97.943Y-169.852
X100.324Y-188.901
X102.069Y-150.803
X105.086Y-207.949
X109.213Y-226.998
X111.594Y-169.852
X112.23Y-150.803
X116.356Y-188.901
X119.373Y-226.998
X121.118Y-126.992
X121.118Y-150.803
X121.754Y-169.852
X125.88Y-207.949
X126.516Y-188.901
X130.643Y-169.852
X131.278Y-126.992
X131.278Y-150.803
X133.024Y-226.998
X135.405Y-188.901
X136.04Y-207.949
X140.167Y-126.992
X140.167Y-150.803
X140.803Y-169.852
X143.184Y-226.998
X144.929Y-207.949
X145.565Y-188.901
X149.691Y-169.852
X150.327Y-126.992
X150.327Y-150.803
X154.454Y-188.901
X155.089Y-207.949
X159.216Y-126.992
X159.216Y-150.803
X159.851Y-169.852
X163.978Y-207.949
X164.614Y-188.901
X168.74Y-169.852
X169.376Y-126.992
X169.376Y-150.803
X173.502Y-188.901
X174.138Y-207.949
X178.265Y-126.992
X178.265Y-150.803
X178.9Y-169.852
X183.027Y-207.949
X183.662Y-188.901
X187.789Y-169.852
X188.425Y-126.992
X188.425Y-150.803
X192.551Y-188.901
X193.187Y-207.949
X197.314Y-150.803
X197.949Y-169.852
X202.076Y-207.949
X202.711Y-188.901
X204.457Y-226.998
X206.838Y-126.992
X206.838Y-169.852
X207.474Y-150.803
X211.6Y-188.901
X212.236Y-207.949
X214.617Y-226.998
X216.362Y-150.803
X216.998Y-126.992
X216.998Y-169.852
X221.124Y-207.949
X221.76Y-188.901
X225.887Y-126.992
X225.887Y-169.852
X226.522Y-150.803
X230.649Y-188.901
X231.284Y-207.949
X235.411Y-150.803
X236.047Y-126.992
X236.047Y-169.852
X240.173Y-207.949
X240.809Y-188.901
X244.935Y-126.992
X244.935Y-169.852
X245.571Y-150.803
X249.698Y-188.901
X250.333Y-207.949
X254.46Y-150.803
X255.095Y-126.992
X255.095Y-169.852
X259.222Y-207.949
X259.858Y-188.901
X263.984Y-126.992
X263.984Y-169.852
X264.62Y-150.803
X268.746Y-188.901
X269.382Y-207.949
X273.509Y-150.803
X274.144Y-126.992
X274.144Y-169.852
X275.89Y-226.998
X278.271Y-207.949
X278.906Y-188.901
X283.033Y-169.852
X283.669Y-150.803
X286.05Y-226.998
X287.795Y-188.901
X288.431Y-207.949
X292.558Y-126.992
X292.558Y-150.803
X293.193Y-169.852
X297.32Y-207.949
X297.955Y-188.901
X299.701Y-226.998
X302.082Y-169.852
X302.717Y-126.992
X302.717Y-150.803
X306.844Y-188.901
X307.48Y-207.949
X309.861Y-226.998
X311.606Y-126.992
X311.606Y-150.803
X312.242Y-169.852
X317.004Y-188.901
X321.131Y-169.852
X321.766Y-126.992
X321.766Y-150.803
X323.512Y-226.998
X330.655Y-126.992
X331.291Y-169.852
X333.036Y-207.949
X333.672Y-226.998
X337.798Y-188.901
X340.179Y-150.803
X340.815Y-126.992
X343.196Y-207.949
X344.942Y-169.852
X347.323Y-226.998
X347.958Y-188.901
X349.704Y-126.992
X350.339Y-150.803
X355.102Y-169.852
X357.483Y-226.998
X359.864Y-126.992
X373.515Y-150.803
X373.515Y-169.852
X373.515Y-226.998
X383.675Y-150.803
X383.675Y-169.852
X383.675Y-226.998
X392.564Y-150.803
X392.564Y-169.852
X392.564Y-207.949
X392.564Y-226.998
X402.724Y-150.803
X402.724Y-169.852
X402.724Y-207.949
X402.724Y-226.998
X411.612Y-150.803
X411.612Y-169.852
X411.612Y-226.998
X421.772Y-150.803
X421.772Y-169.852
X421.772Y-226.998
X435.423Y-150.803
X435.423Y-169.852
X435.423Y-188.901
X435.423Y-207.949
X444.948Y-226.998
X445.583Y-150.803
X445.583Y-169.852
X445.583Y-188.901
X445.583Y-207.949
X454.472Y-150.803
X454.472Y-169.852
X454.472Y-188.901
X454.472Y-207.949
X455.108Y-226.998
X464.632Y-150.803
X464.632Y-169.852
X464.632Y-188.901
X464.632Y-207.949
X473.521Y-150.803
X473.521Y-169.852
X473.521Y-188.901
X473.521Y-207.949
X473.521Y-226.998
X483.681Y-150.803
X483.681Y-169.852
X483.681Y-188.901
X483.681Y-207.949
X483.681Y-226.998
X492.57Y-150.803
X492.57Y-179.376
X492.57Y-217.474
X502.73Y-150.803
X502.73Y-179.376
X502.73Y-217.474
T2
X77.783Y-115.087
X77.783Y-238.904
X232.554Y-226.204
X285.732Y-123.817
X357.165Y-150.803
X398.437Y-188.107
X445.266Y-130.96
X505.587Y-160.327
X511.143Y-238.904
T3
X88.1Y-200.964
X111.912Y-200.964
X159.531Y-220.013
X259.543Y-220.013
X326.21Y-200.964
X330.972Y-181.916
X333.353Y-143.818
X350.022Y-200.964
X354.785Y-181.916
X357.166Y-143.818
X438.122Y-220.013
X461.934Y-220.013
X490.665Y-167.47
X490.665Y-191.282
X490.665Y-205.568
X490.665Y-229.38
T4
X88.1Y-216.204
X88.101Y-126.992
X88.101Y-150.803
X90.482Y-226.998
X92.863Y-169.852
X95.244Y-188.901
X100.006Y-207.949
X107.149Y-150.803
X111.912Y-216.204
X114.293Y-226.998
X116.674Y-169.852
X121.436Y-188.901
X126.198Y-126.992
X126.198Y-150.803
X130.96Y-207.949
X135.723Y-169.852
X138.104Y-226.998
X140.485Y-188.901
X145.247Y-126.992
X145.247Y-150.803
X150.009Y-207.949
X154.772Y-169.852
X159.531Y-235.253
X159.534Y-188.901
X164.296Y-126.992
X164.296Y-150.803
X169.058Y-207.949
X173.82Y-169.852
X178.582Y-188.901
X183.345Y-126.992
X183.345Y-150.803
X188.107Y-207.949
X192.869Y-169.852
X197.631Y-188.901
X202.393Y-150.803
X207.156Y-207.949
X209.537Y-226.998
X211.918Y-126.992
X211.918Y-169.852
X216.68Y-188.901
X221.442Y-150.803
X226.204Y-207.949
X230.967Y-126.992
X230.967Y-169.852
X235.729Y-188.901
X240.491Y-150.803
X245.253Y-207.949
X250.015Y-126.992
X250.015Y-169.852
X254.778Y-188.901
X259.54Y-150.803
X259.543Y-235.253
X264.302Y-207.949
X269.064Y-126.992
X269.064Y-169.852
X273.827Y-188.901
X278.589Y-150.803
X280.97Y-226.998
X283.351Y-207.949
X288.113Y-169.852
X292.875Y-188.901
X297.637Y-126.992
X297.637Y-150.803
X302.4Y-207.949
X304.781Y-226.998
X307.162Y-169.852
X311.924Y-188.901
X316.686Y-126.992
X316.686Y-150.803
X326.21Y-216.204
X326.211Y-169.852
X328.592Y-226.998
X330.972Y-197.156
X333.353Y-159.058
X335.735Y-126.992
X338.116Y-207.949
X342.878Y-188.901
X345.26Y-150.803
X350.022Y-169.852
X350.022Y-216.204
X352.403Y-226.998
X354.784Y-126.992
X354.785Y-197.156
X357.166Y-159.058
X378.595Y-150.803
X378.595Y-169.852
X378.595Y-226.998
X397.644Y-150.803
X397.644Y-169.852
X397.644Y-207.949
X397.644Y-226.998
X416.692Y-150.803
X416.692Y-169.852
X416.692Y-226.998
X438.122Y-235.253
X440.503Y-150.803
X440.503Y-169.852
X440.503Y-188.901
X440.503Y-207.949
X450.028Y-226.998
X459.552Y-150.803
X459.552Y-169.852
X459.552Y-188.901
X459.552Y-207.949
X461.934Y-235.253
X478.601Y-150.803
X478.601Y-169.852
X478.601Y-188.901
X478.601Y-207.949
X478.601Y-226.998
X497.65Y-150.803
X497.65Y-179.376
X497.65Y-217.474
X505.905Y-167.47
X505.905Y-191.282
X505.905Y-205.568
X505.905Y-229.38
M30
