M48
; DRILL file KiCad 10.0.4 date 2026-07-29T23:02:50
; FORMAT={-:-/ absolute / metric / decimal}
; #@! TF.CreationDate,2026-07-29T23:02:50-07:00
; #@! TF.GenerationSoftware,Kicad,Pcbnew,10.0.4
; #@! TF.FileFunction,Plated,1,2,PTH
FMAT,2
METRIC
; #@! TA.AperFunction,Plated,PTH,ViaDrill
T1C0.300
; #@! TA.AperFunction,Plated,PTH,ComponentDrill
T2C0.800
; #@! TA.AperFunction,Plated,PTH,ComponentDrill
T3C1.000
; #@! TA.AperFunction,Plated,PTH,ComponentDrill
T4C1.500
; #@! TA.AperFunction,Plated,PTH,ComponentDrill
T5C1.524
%
G90
G05
T1
X90.826Y-132.592
X90.826Y-156.403
X93.207Y-232.598
X94.45Y-133.342
X94.45Y-157.153
X95.588Y-175.451
X96.831Y-233.348
X97.969Y-194.5
X99.212Y-176.201
X101.594Y-195.25
X102.731Y-213.549
X106.356Y-214.299
X109.874Y-156.403
X113.499Y-157.153
X117.018Y-232.598
X119.399Y-175.451
X120.642Y-233.348
X123.023Y-176.201
X124.161Y-194.5
X127.786Y-195.25
X128.923Y-132.592
X128.923Y-156.403
X132.548Y-133.342
X132.548Y-157.153
X133.685Y-213.549
X137.31Y-214.299
X138.448Y-175.451
X140.829Y-232.598
X142.072Y-176.201
X143.21Y-194.5
X144.453Y-233.348
X146.834Y-195.25
X147.972Y-132.592
X147.972Y-156.403
X151.597Y-133.342
X151.597Y-157.153
X152.734Y-213.549
X156.359Y-214.299
X157.496Y-175.451
X161.121Y-176.201
X162.259Y-194.5
X165.883Y-195.25
X167.021Y-132.592
X167.021Y-156.403
X170.645Y-133.342
X170.645Y-157.153
X171.783Y-213.549
X175.408Y-214.299
X176.545Y-175.451
X180.17Y-176.201
X181.308Y-194.5
X184.932Y-195.25
X186.07Y-132.592
X186.07Y-156.403
X189.694Y-133.342
X189.694Y-157.153
X190.832Y-213.549
X194.456Y-214.299
X195.594Y-175.451
X199.219Y-176.201
X200.356Y-194.5
X203.981Y-195.25
X205.118Y-156.403
X208.743Y-157.153
X209.881Y-213.549
X212.262Y-232.598
X213.505Y-214.299
X214.643Y-132.592
X214.643Y-175.451
X215.886Y-233.348
X218.267Y-133.342
X218.267Y-176.201
X219.405Y-194.5
X223.03Y-195.25
X224.167Y-156.403
X227.792Y-157.153
X228.929Y-213.549
X232.554Y-214.299
X233.692Y-132.592
X233.692Y-175.451
X237.316Y-133.342
X237.316Y-176.201
X238.454Y-194.5
X242.078Y-195.25
X243.216Y-156.403
X246.841Y-157.153
X247.978Y-213.549
X251.603Y-214.299
X252.74Y-132.592
X252.74Y-175.451
X256.365Y-133.342
X256.365Y-176.201
X257.503Y-194.5
X261.127Y-195.25
X262.265Y-156.403
X265.889Y-157.153
X267.027Y-213.549
X270.652Y-214.299
X271.789Y-132.592
X271.789Y-175.451
X275.414Y-133.342
X275.414Y-176.201
X276.551Y-194.5
X280.176Y-195.25
X281.314Y-156.403
X283.695Y-232.598
X284.938Y-157.153
X286.076Y-213.549
X287.319Y-233.348
X289.7Y-214.299
X290.838Y-175.451
X294.463Y-176.201
X295.6Y-194.5
X299.225Y-195.25
X300.363Y-132.592
X300.363Y-156.403
X303.987Y-133.342
X303.987Y-157.153
X305.125Y-213.549
X307.506Y-232.598
X308.749Y-214.299
X309.887Y-175.451
X311.13Y-233.348
X313.512Y-176.201
X314.649Y-194.5
X318.274Y-195.25
X319.411Y-132.592
X319.411Y-156.403
X320.655Y-211.124
X323.036Y-133.342
X323.036Y-157.153
X323.83Y-192.075
X328.936Y-175.451
X331.317Y-232.598
X331.767Y-176.201
X334.941Y-233.348
X338.46Y-132.592
X340.841Y-213.549
X342.085Y-133.342
X345.603Y-194.5
X347.984Y-156.403
X352.747Y-175.451
X353.99Y-119.055
X355.128Y-232.598
X357.509Y-132.592
X360.34Y-112.699
X360.34Y-119.055
X360.34Y-137.316
X361.927Y-137.316
X363.515Y-153.978
X364.983Y-218.267
X365.102Y-176.201
X365.102Y-214.299
X365.896Y-163.502
X365.896Y-180.176
X365.896Y-191.282
X365.896Y-199.225
X366.683Y-129.267
X366.689Y-113.299
X367.483Y-119.055
X367.483Y-129.267
X369.07Y-158.74
X369.07Y-233.348
X369.864Y-161.915
X369.864Y-177.789
X369.864Y-180.964
X369.864Y-215.886
X369.864Y-219.061
X369.864Y-234.935
X370.658Y-119.849
X370.658Y-157.946
X370.764Y-175.408
X370.764Y-181.757
X370.764Y-191.282
X370.764Y-196.044
X370.764Y-199.219
X370.764Y-207.949
X370.764Y-213.505
X370.764Y-219.855
X373.039Y-191.282
X373.039Y-206.362
X373.039Y-236.523
X373.833Y-153.184
X373.833Y-161.127
X373.833Y-164.296
X381.32Y-156.403
X381.32Y-175.451
X381.32Y-232.598
X384.945Y-157.153
X384.945Y-176.201
X384.945Y-233.348
X400.369Y-156.403
X400.369Y-175.451
X400.369Y-213.549
X400.369Y-232.598
X403.993Y-157.153
X403.993Y-176.201
X403.993Y-214.299
X403.993Y-233.348
X408.755Y-181.757
X408.755Y-195.25
X408.755Y-219.061
X411.93Y-119.849
X419.417Y-156.403
X419.417Y-175.451
X419.417Y-232.598
X423.042Y-157.153
X423.042Y-176.201
X423.042Y-233.348
X427.011Y-138.21
X427.011Y-171.439
X427.804Y-153.078
X428.598Y-228.586
X429.385Y-153.078
X430.079Y-196.044
X430.079Y-199.219
X430.185Y-153.078
X430.185Y-171.439
X430.185Y-180.964
X431.879Y-196.044
X431.879Y-199.219
X433.36Y-223.823
X433.36Y-226.204
X443.228Y-156.403
X443.228Y-175.451
X443.228Y-194.5
X443.228Y-213.549
X446.853Y-157.153
X446.853Y-176.201
X446.853Y-195.25
X446.853Y-214.299
X448.434Y-138.21
X449.228Y-132.548
X449.234Y-138.21
X450.028Y-132.548
X452.753Y-232.598
X456.377Y-233.348
X462.277Y-156.403
X462.277Y-175.451
X462.277Y-194.5
X462.277Y-213.549
X465.902Y-157.153
X465.902Y-176.201
X465.902Y-195.25
X465.902Y-214.299
X481.326Y-156.403
X481.326Y-175.451
X481.326Y-175.451
X481.326Y-194.5
X481.326Y-213.549
X481.326Y-232.598
X483.363Y-180.176
X483.363Y-199.225
X484.951Y-157.153
X484.951Y-214.299
X484.951Y-233.348
X497.65Y-190.488
X497.65Y-204.775
X498.444Y-161.127
X500.375Y-156.403
X500.375Y-184.976
X503.206Y-189.694
X507.174Y-188.907
T2
X97.623Y-143.024
X97.623Y-150.644
X97.625Y-119.372
X97.625Y-126.992
X100.006Y-219.378
X100.006Y-226.998
X102.387Y-162.232
X102.387Y-169.852
X104.768Y-181.281
X104.768Y-188.901
X116.673Y-143.024
X116.673Y-150.644
X121.436Y-200.329
X121.436Y-207.949
X123.817Y-219.378
X123.817Y-226.998
X126.198Y-162.232
X126.198Y-169.852
X130.959Y-181.281
X130.959Y-188.901
X135.722Y-143.024
X135.722Y-150.644
X135.723Y-119.372
X135.723Y-126.992
X140.485Y-200.329
X140.485Y-207.949
X145.247Y-162.232
X145.247Y-169.852
X147.628Y-219.378
X147.628Y-226.998
X150.009Y-181.281
X150.009Y-188.901
X154.77Y-143.024
X154.77Y-150.644
X154.772Y-119.372
X154.772Y-126.992
X159.534Y-200.329
X159.534Y-207.949
X164.296Y-162.232
X164.296Y-169.852
X169.058Y-181.281
X169.058Y-188.901
X173.819Y-143.024
X173.819Y-150.644
X173.82Y-119.372
X173.82Y-126.992
X178.582Y-200.329
X178.582Y-207.949
X183.345Y-162.232
X183.345Y-169.852
X188.106Y-181.281
X188.106Y-188.901
X192.868Y-143.024
X192.868Y-150.644
X192.869Y-119.372
X192.869Y-126.992
X197.631Y-200.329
X197.631Y-207.949
X202.393Y-162.232
X202.393Y-169.852
X207.155Y-181.281
X207.155Y-188.901
X211.917Y-143.024
X211.917Y-150.644
X216.68Y-200.329
X216.68Y-207.949
X221.442Y-119.372
X221.442Y-126.992
X221.442Y-162.232
X221.442Y-169.852
X226.377Y-181.281
X226.377Y-188.901
X230.965Y-143.024
X230.965Y-150.644
X235.729Y-200.329
X235.729Y-207.949
X240.491Y-119.372
X240.491Y-126.992
X240.491Y-162.232
X240.491Y-169.852
X245.253Y-181.281
X245.253Y-188.901
X250.014Y-143.024
X250.014Y-150.644
X254.778Y-200.329
X254.778Y-207.949
X259.54Y-119.372
X259.54Y-126.992
X259.54Y-162.232
X259.54Y-169.852
X264.301Y-181.281
X264.301Y-188.901
X269.063Y-143.024
X269.063Y-150.644
X269.064Y-219.378
X269.064Y-226.998
X273.827Y-200.329
X273.827Y-207.949
X278.589Y-119.372
X278.589Y-126.992
X278.589Y-162.232
X278.589Y-169.852
X283.35Y-181.281
X283.35Y-188.901
X288.112Y-143.024
X288.112Y-150.644
X290.494Y-219.378
X290.494Y-226.998
X292.875Y-200.329
X292.875Y-207.949
X297.637Y-162.232
X297.637Y-169.852
X302.399Y-181.281
X302.399Y-188.901
X307.161Y-143.024
X307.161Y-150.644
X307.162Y-119.372
X307.162Y-126.992
X311.924Y-200.329
X311.924Y-207.949
X314.305Y-219.378
X314.305Y-226.998
X316.686Y-162.232
X316.686Y-169.852
X321.448Y-181.281
X321.448Y-188.901
X326.209Y-143.024
X326.209Y-150.644
X326.211Y-119.372
X326.211Y-126.992
X335.735Y-162.232
X335.735Y-169.852
X338.116Y-219.378
X338.116Y-226.998
X345.26Y-119.372
X345.26Y-126.992
X359.547Y-162.232
X359.547Y-169.852
X361.927Y-219.378
X361.927Y-226.998
X364.308Y-119.372
X364.308Y-126.992
X364.308Y-143.024
X364.308Y-150.644
X364.308Y-181.281
X364.308Y-188.901
X364.308Y-200.329
X364.308Y-207.949
X388.119Y-143.183
X388.119Y-150.803
X388.119Y-162.232
X388.119Y-169.852
X388.119Y-219.378
X388.119Y-226.998
X407.168Y-143.341
X407.168Y-150.962
X407.168Y-162.232
X407.168Y-169.852
X407.168Y-200.329
X407.168Y-207.949
X407.168Y-219.378
X407.168Y-226.998
X426.217Y-143.183
X426.217Y-150.803
X426.217Y-162.232
X426.217Y-169.852
X426.217Y-219.378
X426.217Y-226.998
X427.011Y-120.801
X427.011Y-128.421
X450.028Y-143.183
X450.028Y-150.803
X450.028Y-162.232
X450.028Y-169.852
X450.028Y-181.281
X450.028Y-188.901
X450.028Y-200.329
X450.028Y-207.949
X469.077Y-143.183
X469.077Y-150.803
X469.077Y-162.232
X469.077Y-169.852
X469.077Y-181.281
X469.077Y-188.901
X469.077Y-200.329
X469.077Y-207.949
X469.077Y-219.378
X469.077Y-226.998
X487.332Y-162.232
X487.332Y-169.852
X487.332Y-200.329
X487.332Y-207.949
X488.125Y-143.183
X488.125Y-150.803
X488.125Y-181.281
X488.125Y-188.901
X488.125Y-219.378
X488.125Y-226.998
X507.174Y-143.183
X507.174Y-150.803
X507.174Y-171.756
X507.174Y-179.376
X507.174Y-209.854
X507.174Y-217.474
T3
X405.619Y-123.182
X405.619Y-125.722
X405.619Y-128.262
X405.619Y-130.802
X409.442Y-124.492
X409.442Y-126.992
X409.442Y-129.492
X423.942Y-124.492
X423.942Y-129.492
X464.795Y-117.308
X464.795Y-135.088
X467.335Y-117.308
X467.335Y-135.088
X469.875Y-117.308
X469.875Y-135.088
X472.415Y-117.308
X472.415Y-135.088
X474.955Y-117.308
X474.955Y-135.088
X477.495Y-117.308
X477.495Y-135.088
X480.035Y-117.308
X480.035Y-135.088
X482.575Y-117.308
X482.575Y-135.088
X485.115Y-117.308
X485.115Y-135.088
X487.655Y-117.308
X487.655Y-135.088
X490.195Y-117.308
X490.195Y-135.088
X492.735Y-117.308
X492.735Y-135.088
X495.275Y-117.308
X495.275Y-135.088
X497.815Y-117.308
X497.815Y-135.088
X500.355Y-117.308
X500.355Y-135.088
X502.895Y-117.308
X502.895Y-135.088
X505.435Y-117.308
X505.435Y-135.088
X507.975Y-117.308
X507.975Y-135.088
X510.515Y-117.308
X510.515Y-135.088
X513.055Y-117.308
X513.055Y-135.088
T5
X84.291Y-124.452
X84.291Y-148.263
X86.672Y-224.458
X89.053Y-167.312
X90.641Y-121.912
X90.641Y-145.723
X91.434Y-186.361
X93.022Y-221.918
X95.403Y-164.772
X96.196Y-205.409
X97.784Y-183.821
X102.546Y-202.869
X103.34Y-148.263
X109.689Y-145.723
X110.483Y-224.458
X112.864Y-167.312
X116.833Y-221.918
X117.626Y-186.361
X119.214Y-164.772
X122.388Y-124.452
X122.388Y-148.263
X123.976Y-183.821
X127.15Y-205.409
X128.738Y-121.912
X128.738Y-145.723
X131.913Y-167.312
X133.5Y-202.869
X134.294Y-224.458
X136.675Y-186.361
X138.263Y-164.772
X140.644Y-221.918
X141.437Y-124.452
X141.437Y-148.263
X143.025Y-183.821
X146.199Y-205.409
X147.787Y-121.912
X147.787Y-145.723
X150.962Y-167.312
X152.549Y-202.869
X155.724Y-186.361
X157.311Y-164.772
X160.486Y-124.452
X160.486Y-148.263
X162.074Y-183.821
X165.248Y-205.409
X166.836Y-121.912
X166.836Y-145.723
X170.01Y-167.312
X171.598Y-202.869
X174.772Y-186.361
X176.36Y-164.772
X179.535Y-124.452
X179.535Y-148.263
X181.123Y-183.821
X184.297Y-205.409
X185.885Y-121.912
X185.885Y-145.723
X189.059Y-167.312
X190.647Y-202.869
X193.821Y-186.361
X195.409Y-164.772
X198.583Y-148.263
X200.171Y-183.821
X203.346Y-205.409
X204.933Y-145.723
X205.727Y-224.458
X208.108Y-124.452
X208.108Y-167.312
X209.696Y-202.869
X212.077Y-221.918
X212.87Y-186.361
X214.458Y-121.912
X214.458Y-164.772
X217.632Y-148.263
X219.22Y-183.821
X222.394Y-205.409
X223.982Y-145.723
X227.157Y-124.452
X227.157Y-167.312
X228.744Y-202.869
X231.919Y-186.361
X233.507Y-121.912
X233.507Y-164.772
X236.681Y-148.263
X238.269Y-183.821
X241.443Y-205.409
X243.031Y-145.723
X246.206Y-124.452
X246.206Y-167.312
X247.793Y-202.869
X250.968Y-186.361
X252.555Y-121.912
X252.555Y-164.772
X255.73Y-148.263
X257.318Y-183.821
X260.492Y-205.409
X262.08Y-145.723
X265.254Y-124.452
X265.254Y-167.312
X266.842Y-202.869
X270.017Y-186.361
X271.604Y-121.912
X271.604Y-164.772
X274.779Y-148.263
X276.366Y-183.821
X277.16Y-224.458
X279.541Y-205.409
X281.129Y-145.723
X283.51Y-221.918
X284.303Y-167.312
X285.891Y-202.869
X289.065Y-186.361
X290.653Y-164.772
X293.827Y-124.452
X293.827Y-148.263
X295.415Y-183.821
X298.59Y-205.409
X300.178Y-121.912
X300.178Y-145.723
X300.971Y-224.458
X303.352Y-167.312
X304.94Y-202.869
X307.321Y-221.918
X308.114Y-186.361
X309.702Y-164.772
X312.876Y-124.452
X312.876Y-148.263
X314.464Y-183.821
X319.226Y-121.912
X319.226Y-145.723
X322.401Y-167.312
X324.782Y-224.458
X328.751Y-164.772
X331.132Y-221.918
X331.925Y-124.452
X334.306Y-205.409
X338.275Y-121.912
X339.068Y-186.361
X340.656Y-202.869
X341.45Y-148.263
X345.418Y-183.821
X346.212Y-167.312
X347.799Y-145.723
X348.593Y-224.458
X350.974Y-124.452
X352.562Y-164.772
X354.943Y-221.918
X357.324Y-121.912
X374.785Y-148.263
X374.785Y-167.312
X374.785Y-224.458
X381.135Y-145.723
X381.135Y-164.772
X381.135Y-221.918
X393.834Y-148.263
X393.834Y-167.312
X393.834Y-205.409
X393.834Y-224.458
X400.184Y-145.723
X400.184Y-164.772
X400.184Y-202.869
X400.184Y-221.918
X412.882Y-148.263
X412.882Y-167.312
X412.882Y-224.458
X419.232Y-145.723
X419.232Y-164.772
X419.232Y-221.918
X436.693Y-148.263
X436.693Y-167.312
X436.693Y-186.361
X436.693Y-205.409
X443.043Y-145.723
X443.043Y-164.772
X443.043Y-183.821
X443.043Y-202.869
X446.218Y-224.458
X452.568Y-221.918
X455.742Y-148.263
X455.742Y-167.312
X455.742Y-186.361
X455.742Y-205.409
X462.092Y-145.723
X462.092Y-164.772
X462.092Y-183.821
X462.092Y-202.869
X474.791Y-148.263
X474.791Y-167.312
X474.791Y-186.361
X474.791Y-205.409
X474.791Y-224.458
X481.141Y-145.723
X481.141Y-164.772
X481.141Y-183.821
X481.141Y-202.869
X481.141Y-221.918
X493.84Y-148.263
X493.84Y-176.836
X493.84Y-214.934
X500.19Y-145.723
X500.19Y-174.296
X500.19Y-212.394
T4
G00X416.292Y-121.392
M15
G01X417.592Y-121.392
M16
G05
G00X416.292Y-132.592
M15
G01X417.592Y-132.592
M16
G05
M30
